HIERARCHY
ROOT joint_Root
{
	OFFSET 0.0 0.0 0.0
	CHANNELS 6 Xposition Yposition Zposition Zrotation Xrotation Yrotation 
	JOINT Hips
	{
		OFFSET -17.1583 93.1646 452.98
		CHANNELS 6 Xposition Yposition Zposition Zrotation Xrotation Yrotation 
		JOINT Spine
		{
			OFFSET 15.7357 0.0 0.0
			CHANNELS 6 Xposition Yposition Zposition Zrotation Xrotation Yrotation 
			JOINT Chest
			{
				OFFSET 8.98455 -0.406207 0.0
				CHANNELS 6 Xposition Yposition Zposition Zrotation Xrotation Yrotation 
				JOINT Neck
				{
					OFFSET 16.3773 0.0 0.0
					CHANNELS 6 Xposition Yposition Zposition Zrotation Xrotation Yrotation 
					JOINT Head
					{
						OFFSET 6.45672 0.0 0.0
						CHANNELS 6 Xposition Yposition Zposition Zrotation Xrotation Yrotation 
						End Site
						{
							OFFSET 0.0 0.0 0.0
						}
					}
				}
				JOINT Shoulder_L
				{
					OFFSET 12.9942 -0.242716 4.98039
					CHANNELS 6 Xposition Yposition Zposition Zrotation Xrotation Yrotation 
					JOINT UpperArm_L
					{
						OFFSET 5.34809 0.0 0.0
						CHANNELS 6 Xposition Yposition Zposition Zrotation Xrotation Yrotation 
						JOINT LowerArm_L
						{
							OFFSET 24.3286 1.87007e-05 0.0
							CHANNELS 6 Xposition Yposition Zposition Zrotation Xrotation Yrotation 
							JOINT Hand_L
							{
								OFFSET 22.2916 0.0 0.0
								CHANNELS 6 Xposition Yposition Zposition Zrotation Xrotation Yrotation 
								End Site
								{
									OFFSET 0.0 0.0 0.0
								}
							}
						}
					}
				}
				JOINT Shoulder_R
				{
					OFFSET 12.9945 -0.242716 -4.98039
					CHANNELS 6 Xposition Yposition Zposition Zrotation Xrotation Yrotation 
					JOINT UpperArm_R
					{
						OFFSET -5.34813 0.0 0.0
						CHANNELS 6 Xposition Yposition Zposition Zrotation Xrotation Yrotation 
						JOINT LowerArm_R
						{
							OFFSET -24.3289 0.000322201 0.0
							CHANNELS 6 Xposition Yposition Zposition Zrotation Xrotation Yrotation 
							JOINT Hand_R
							{
								OFFSET -22.2915 -0.000108084 0.0
								CHANNELS 6 Xposition Yposition Zposition Zrotation Xrotation Yrotation 
								End Site
								{
									OFFSET 0.0 0.0 0.0
								}
							}
						}
					}
				}
			}
		}
		JOINT UpperLeg_L
		{
			OFFSET -2.19248 -6.46944 0.0
			CHANNELS 6 Xposition Yposition Zposition Zrotation Xrotation Yrotation 
			JOINT LowerLeg_L
			{
				OFFSET 39.0811 0.0 -1.23785e-05
				CHANNELS 6 Xposition Yposition Zposition Zrotation Xrotation Yrotation 
				JOINT Foot_L
				{
					OFFSET 40.9854 0.0 -1.26872e-05
					CHANNELS 6 Xposition Yposition Zposition Zrotation Xrotation Yrotation 
					JOINT Toes_L
					{
						OFFSET 11.7543 0.0 0.0
						CHANNELS 6 Xposition Yposition Zposition Zrotation Xrotation Yrotation 
						End Site
						{
							OFFSET 0.0 0.0 0.0
						}
					}
				}
			}
		}
		JOINT UpperLeg_R
		{
			OFFSET -2.19251 6.46944 0.0
			CHANNELS 6 Xposition Yposition Zposition Zrotation Xrotation Yrotation 
			JOINT LowerLeg_R
			{
				OFFSET -39.0811 -0.00228153 -0.0401928
				CHANNELS 6 Xposition Yposition Zposition Zrotation Xrotation Yrotation 
				JOINT Foot_R
				{
					OFFSET -40.9854 0.0 0.0
					CHANNELS 6 Xposition Yposition Zposition Zrotation Xrotation Yrotation 
					JOINT Toes_R
					{
						OFFSET -11.7543 0.0 0.0
						CHANNELS 6 Xposition Yposition Zposition Zrotation Xrotation Yrotation 
						End Site
						{
							OFFSET 0.0 0.0 0.0
						}
					}
				}
			}
		}
	}
}
MOTION
Frames:	4
Frame Time:	0.0333333
0.000000 0.000000 0.000000 0.000000 0.000000 -0.000000 -2.712900 92.118800 9.223690 -88.911300 1.391900 -172.980000 15.735700 0.000005 -0.000001 71.891400 84.918200 -70.837000 8.984550 -0.406207 -0.000000 1.927620 -3.210770 2.161320 16.377300 -0.000001 -0.000001 5.004990 4.385610 -3.581420 6.456720 -0.000001 -0.000000 -4.706930 5.597840 -0.047572 12.994200 -0.242716 4.980390 -92.905100 8.014190 -69.999200 5.348090 -0.000007 -0.000001 -74.555800 -14.835800 -3.759860 24.328600 0.000019 0.000005 28.555900 26.110000 -51.037700 22.291600 -0.000001 0.000005 40.711600 4.396380 18.281000 12.994500 -0.242716 -4.980390 88.359100 4.264520 -68.931400 -5.348130 -0.000001 -0.000004 -66.495000 -7.762300 9.530000 -24.328900 0.000322 -0.000009 -1.041910 -3.499990 -16.573600 -22.291500 -0.000108 -0.000004 45.437000 5.529900 -7.791210 -2.192480 -6.469440 -0.000000 176.957000 -0.165940 1.543930 39.081100 -0.000007 -0.000012 0.220143 -0.524062 22.786200 40.985400 -0.000006 -0.000013 7.106330 8.662410 -72.048200 11.754300 -0.000000 0.000003 -0.002280 0.199794 -8.470600 -2.192510 6.469440 -0.000001 -179.330000 -0.070403 161.337000 -39.081100 -0.002282 -0.040193 -0.046478 0.028147 60.463700 -40.985400 0.000008 0.000006 -2.008960 -10.091300 -60.723600 -11.754300 -0.000006 -0.000006 -0.002431 0.201651 -8.391630
0.000000 0.000000 0.000000 0.000000 0.000000 -0.000000 -2.334340 92.399800 6.075100 -88.102800 0.465136 -173.572000 15.735700 0.000005 -0.000001 66.346000 84.778900 -65.039200 8.984550 -0.406207 -0.000000 1.853850 -4.254380 2.680980 16.377300 -0.000001 -0.000001 5.160350 4.425390 -3.523000 6.456720 -0.000001 -0.000000 -4.687700 6.120630 0.080200 12.994200 -0.242716 4.980390 -92.799500 7.904060 -70.425200 5.348090 -0.000007 -0.000001 -73.997000 -15.035900 -4.995840 24.328600 0.000019 0.000005 31.212900 25.473700 -54.631300 22.291600 -0.000001 0.000005 40.960600 4.384660 18.466900 12.994500 -0.242716 -4.980390 88.344000 4.190360 -68.413900 -5.348130 -0.000001 -0.000004 -64.955900 -8.920440 10.423700 -24.328900 0.000322 -0.000009 -1.098830 -3.602760 -16.958700 -22.291500 -0.000108 -0.000004 45.779800 5.534010 -7.971560 -2.192480 -6.469440 -0.000000 178.822000 -0.768499 4.491180 39.081100 -0.000007 -0.000012 0.093959 -0.260819 19.811400 40.985400 -0.000006 -0.000013 3.436700 11.572000 -71.041300 11.754300 -0.000000 0.000003 -0.000785 0.179925 -9.278380 -2.192510 6.469440 -0.000001 -177.820000 -1.094910 159.272000 -39.081100 -0.002282 -0.040193 -0.046788 0.040544 50.979700 -40.985400 0.000008 0.000006 -1.472780 -13.374400 -63.218100 -11.754300 -0.000006 -0.000006 -0.002962 0.207837 -8.139900
0.000000 0.000000 0.000000 0.000000 0.000000 -0.000000 -2.060950 92.401300 2.909580 -87.964800 -0.475913 -174.074000 15.735700 0.000005 -0.000001 62.142600 84.609900 -60.840900 8.984550 -0.406207 -0.000000 1.831610 -5.101700 2.683940 16.377300 -0.000001 -0.000001 5.099850 4.315590 -3.338220 6.456720 -0.000001 -0.000000 -4.675360 6.467640 0.293141 12.994200 -0.242716 4.980390 -92.714400 7.833280 -70.819500 5.348090 -0.000007 -0.000001 -73.252100 -15.355400 -6.156230 24.328600 0.000019 0.000005 33.472200 24.621700 -57.783800 22.291600 -0.000001 0.000005 41.317300 4.353360 18.960900 12.994500 -0.242716 -4.980390 88.373300 4.038460 -68.039100 -5.348130 -0.000001 -0.000004 -63.751700 -10.733900 11.128600 -24.328900 0.000322 -0.000009 -1.192530 -3.841810 -17.244700 -22.291500 -0.000108 -0.000004 46.239800 5.531630 -7.867500 -2.192480 -6.469440 -0.000000 -179.753000 -2.321840 7.603750 39.081100 -0.000007 -0.000012 0.012299 -0.041349 16.564500 40.985400 -0.000006 -0.000013 0.105335 15.157400 -69.411800 11.754300 -0.000000 0.000003 -0.000206 0.171018 -9.640220 -2.192510 6.469440 -0.000001 -177.445000 -1.840260 158.743000 -39.081100 -0.002282 -0.040193 -0.026289 0.037042 38.600700 -40.985400 0.000008 0.000006 -1.519570 -15.272700 -63.182400 -11.754300 -0.000006 -0.000006 -0.002910 0.207253 -8.163700
0.000000 0.000000 0.000000 0.000000 0.000000 -0.000000 -1.897500 92.078900 -0.403196 -88.359400 -1.371840 -174.549000 15.735700 0.000005 -0.000001 59.137200 84.491400 -58.018200 8.984550 -0.406207 -0.000000 1.756880 -5.707100 2.324960 16.377300 -0.000001 -0.000001 4.811640 4.188590 -3.079440 6.456720 -0.000001 -0.000000 -4.628090 6.533520 0.438391 12.994200 -0.242716 4.980390 -92.552000 7.479500 -71.099400 5.348090 -0.000007 -0.000001 -73.032200 -15.753800 -7.277270 24.328600 0.000019 0.000005 34.730600 23.663600 -59.929500 22.291600 -0.000001 0.000005 41.638600 4.335990 19.232900 12.994500 -0.242716 -4.980390 88.502500 3.688070 -67.883000 -5.348130 -0.000001 -0.000004 -62.939900 -12.231600 12.003400 -24.328900 0.000322 -0.000009 -1.275520 -3.981450 -17.766600 -22.291500 -0.000108 -0.000004 46.300300 5.530190 -7.803920 -2.192480 -6.469440 -0.000000 -179.173000 -3.605850 10.370700 39.081100 -0.000007 -0.000012 -0.004721 0.018295 14.468100 40.985400 -0.000006 -0.000013 -1.205840 17.795300 -68.966800 11.754300 -0.000000 0.000003 1.033870 1.708800 -11.203600 -2.192510 6.469440 -0.000001 -177.802000 -1.322610 159.564000 -39.081100 -0.002282 -0.040193 -0.002448 0.012217 25.239400 -40.985400 0.000008 0.000006 -2.486800 -11.548500 -63.766500 -11.754300 -0.000006 -0.000006 -0.004037 0.219492 -7.665440
